<?xml version="1.0" encoding="utf-8" ?>
<svg xmlns="http://www.w3.org/2000/svg" xmlns:xlink="http://www.w3.org/1999/xlink" width="512" height="512">
	<path fill="#06D6A0" transform="scale(0.5 0.5)" d="M356.446 96.4634L356.924 95.7613C362.484 87.3001 364.794 74.1855 367.432 64.3868L960.011 64.0972L959.915 128.611L867.677 128.116C850.486 127.286 833.117 123.522 816.061 121.152C799.081 118.792 781.492 117.42 764.375 116.248C739.48 114.543 714.495 113.209 689.547 112.606C675.869 112.275 662.157 112.465 648.474 112.36C593.098 111.937 537.075 113.248 481.972 119.093C469.998 120.364 458.085 121.765 446.197 123.696C436.895 125.207 427.71 127.284 418.378 128.638C414.967 128.259 410.995 128.824 407.486 128.766C395.658 128.572 383.829 128.464 372 128.328C366.197 128.262 359.828 128.695 354.117 127.905L353.782 126.139C354.347 119.284 354.615 112.407 355.208 105.547C355.458 102.657 355.488 99.1947 356.446 96.4634Z"/>
	<path fill="#073B4C" transform="scale(0.5 0.5)" d="M111.99 192.024L64.006 191.756L63.9163 64.0769L357.858 64.5612L356.446 96.4634C355.488 99.1947 355.458 102.657 355.208 105.547C354.615 112.407 354.347 119.284 353.782 126.139C352.724 135.242 352.026 144.393 350.986 153.5C349.528 166.262 347.787 178.879 348.016 191.765L111.99 192.024Z"/>
	<path fill="#FFD166" transform="scale(0.5 0.5)" d="M109.541 110.122C112.916 109.883 116.749 110.676 119.709 112.301C124.418 114.887 127.717 118.668 129.113 123.92C130.203 128.023 129.21 132.73 126.947 136.25C124.164 140.58 119.946 142.849 115.074 143.996C110.245 144.205 106.075 144.331 101.79 141.693C97.9666 139.34 95.3892 135.498 94.5938 131.1C93.7389 126.373 94.8878 121.02 97.5953 117.083C100.547 112.792 104.586 111.073 109.541 110.122Z"/>
	<path fill="#FFD166" transform="scale(0.5 0.5)" d="M299.827 110.072C303.333 109.726 306.768 109.744 310.056 111.136C314.923 113.197 318.773 117.586 320.641 122.476C321.976 125.972 321.862 129.712 320.332 133.109C317.719 138.916 313.128 141.654 307.447 143.788C303.331 144.394 299.248 144.233 295.46 142.39C291.56 140.493 288.071 136.672 286.712 132.528C285.196 127.908 285.456 123.728 287.659 119.368C290.314 114.112 294.464 111.795 299.827 110.072Z"/>
	<path fill="#FFD166" transform="scale(0.5 0.5)" d="M174.406 110.15C178.283 109.962 182.201 110.88 185.5 112.938C189.622 115.508 192.748 119.532 193.717 124.334C194.527 128.355 193.762 132.458 191.505 135.882C188.243 140.829 183.265 142.8 177.697 143.971C173.591 144.147 169.693 143.996 166.043 141.868C162.044 139.536 159.237 135.177 158.307 130.708C157.378 126.238 158.492 121.756 161.037 118C164.378 113.067 168.711 111.103 174.406 110.15Z"/>
	<path fill="#FFD166" transform="scale(0.5 0.5)" d="M237.555 110.115C241.003 109.894 245.129 110.527 248.183 112.169C252.818 114.662 255.854 118.69 257.23 123.75C258.389 128.011 257.591 132.202 255.301 135.94C252.45 140.597 248.179 142.839 243.076 144.223C238.769 144.567 234.886 144.616 230.999 142.396C226.685 139.932 223.258 135.59 222.213 130.696C221.202 125.967 222.434 121.172 225.185 117.25C228.193 112.96 232.561 111.082 237.555 110.115Z"/>
	<path fill="#118AB2" transform="scale(0.5 0.5)" d="M418.378 128.638C427.71 127.284 436.895 125.207 446.197 123.696C458.085 121.765 469.998 120.364 481.972 119.093C537.075 113.248 593.098 111.937 648.474 112.36C662.157 112.465 675.869 112.275 689.547 112.606C714.495 113.209 739.48 114.543 764.375 116.248C781.492 117.42 799.081 118.792 816.061 121.152C833.117 123.522 850.486 127.286 867.677 128.116L959.915 128.611L960.01 191.57L911.005 191.47L348.016 191.765C347.787 178.879 349.528 166.262 350.986 153.5C352.026 144.393 352.724 135.242 353.782 126.139L354.117 127.905C359.828 128.695 366.197 128.262 372 128.328C383.829 128.464 395.658 128.572 407.486 128.766C410.995 128.824 414.967 128.259 418.378 128.638Z"/>
	<path fill="#073B4C" transform="scale(0.5 0.5)" d="M418.378 128.638C427.71 127.284 436.895 125.207 446.197 123.696C458.085 121.765 469.998 120.364 481.972 119.093C537.075 113.248 593.098 111.937 648.474 112.36C662.157 112.465 675.869 112.275 689.547 112.606C714.495 113.209 739.48 114.543 764.375 116.248C781.492 117.42 799.081 118.792 816.061 121.152C833.117 123.522 850.486 127.286 867.677 128.116L868.399 128.767C858.7 130.396 849.133 132.655 839.386 134.007C796.29 139.985 752.514 142.293 709.053 143.716C681.947 144.603 654.812 145.386 627.685 145.2C608.901 145.07 590.258 144.264 571.5 143.489C541.968 142.268 512.458 140.742 483.005 138.222C464.808 136.665 446.643 134.528 428.717 131.017C425.553 130.397 421.266 130.06 418.378 128.638Z"/>
	<path fill="#EF476F" transform="scale(0.5 0.5)" d="M111.994 863.915L912.077 864.232C911.989 886.235 911.865 908.248 912.004 930.25C912.043 936.399 912.188 942.545 912.298 948.693C912.362 952.254 912.669 956.254 912.051 959.75L910.25 959.995L111.92 959.526L111.994 863.915Z"/>
	<path fill="#FFD166" transform="scale(0.5 0.5)" d="M112.054 287.467L246.905 287.575C251.802 290.789 256.165 294.77 260.959 298.16C275.243 308.263 289.758 318.002 303.693 328.592C313.571 336.098 322.884 344.342 332.767 351.82C344.582 360.759 356.348 369.762 368.177 378.683C377.552 385.755 388.188 392.985 396.285 401.491C385.03 413.535 374.751 428.886 368.239 444.109C365.617 448.816 363.917 454.194 362.155 459.269C357.147 473.699 353.635 487.99 353.293 503.29L353.098 504.272L353.139 504.677C353.798 512.006 352.811 519.51 353.385 526.934C355.392 552.854 361.986 577.891 375.799 600.081C377.881 603.425 380.067 607.559 382.681 610.459L383.943 612.683C388.587 621.365 394.928 630.445 402.042 637.334C400.063 637.711 397.688 639.488 395.901 640.534C391.959 642.843 387.999 645.124 383.986 647.307C360.109 660.298 336.284 673.371 312.408 686.361C280.711 703.606 248.644 720.601 216.473 736.953C203.783 743.403 190.854 749.366 178.208 755.896C155.971 767.378 134.389 780.34 111.777 791.094L112.054 287.467Z"/>
	<path fill="#FFD166" transform="scale(0.5 0.5)" d="M912.17 286.958C912.917 300.733 912.459 314.783 912.326 328.581C912.131 348.906 911.991 369.228 912.001 389.554C912.035 463.168 912.037 536.782 912 610.398C911.99 631.076 911.989 651.753 912.002 672.431C912.005 677.182 912.017 681.932 912.04 686.682C912.05 688.71 911.718 691.429 912.234 693.379L911.934 696.024L912.045 792.438L623.035 639.009L622.166 638.686C624.926 635.973 627.438 632.294 629.807 629.223C633.66 624.227 638.426 618.479 640.741 612.56L654.569 587.79L654.942 587.072C665.196 565.666 670.329 542.319 671.465 518.66C672.995 486.769 665.149 453.78 647.922 426.771C642.419 418.143 636.044 410.657 629.18 403.125C633.315 397.52 639.244 392.895 644.535 388.408C654.257 380.161 664.26 372.35 674.203 364.383C696.47 346.539 718.373 328.194 740.823 310.578C750.589 302.914 760.928 295.956 770.651 288.283L771.698 288.054L902.642 287.333C905.843 287.588 908.98 287.245 912.17 286.958Z"/>
	<path fill="#EF476F" transform="scale(0.5 0.5)" d="M348.016 191.765L911.005 191.47L911.483 216.648L912.17 286.958C908.98 287.245 905.843 287.588 902.642 287.333L771.698 288.054L770.651 288.283C760.928 295.956 750.589 302.914 740.823 310.578C718.373 328.194 696.47 346.539 674.203 364.383C664.26 372.35 654.257 380.161 644.535 388.408C639.244 392.895 633.315 397.52 629.18 403.125C636.044 410.657 642.419 418.143 647.922 426.771C665.149 453.78 672.995 486.769 671.465 518.66C670.329 542.319 665.196 565.666 654.942 587.072L654.569 587.79L640.741 612.56C638.426 618.479 633.66 624.227 629.807 629.223C627.438 632.294 624.926 635.973 622.166 638.686L621.319 638.346C620.46 638.643 620.75 638.428 620.19 638.995L617.163 641.828C584.959 669.977 543.577 685.4 500.683 682.563C473.802 680.785 446.711 670.566 424.5 655.486C416.832 650.281 409.17 644.503 403.049 637.497L402.042 637.334C394.928 630.445 388.587 621.365 383.943 612.683L382.681 610.459C380.067 607.559 377.881 603.425 375.799 600.081C361.986 577.891 355.392 552.854 353.385 526.934C352.811 519.51 353.798 512.006 353.139 504.677L353.098 504.272L353.293 503.29C353.635 487.99 357.147 473.699 362.155 459.269C363.917 454.194 365.617 448.816 368.239 444.109C374.751 428.886 385.03 413.535 396.285 401.491C388.188 392.985 377.552 385.755 368.177 378.683C356.348 369.762 344.582 360.759 332.767 351.82C322.884 344.342 313.571 336.098 303.693 328.592C289.758 318.002 275.243 308.263 260.959 298.16C256.165 294.77 251.802 290.789 246.905 287.575L112.054 287.467L111.99 192.024L348.016 191.765ZM246.905 287.575C251.802 290.789 256.165 294.77 260.959 298.16C275.243 308.263 289.758 318.002 303.693 328.592C313.571 336.098 322.884 344.342 332.767 351.82C344.582 360.759 356.348 369.762 368.177 378.683C377.552 385.755 388.188 392.985 396.285 401.491C405.924 391.742 416.745 382.336 428.381 375.042C451.913 360.29 481.219 352.108 508.936 351.974C527.073 351.887 545.712 354.1 562.983 359.859C581.236 365.946 598.154 375.971 613.005 388.083C618.739 392.759 623.773 398.098 629.18 403.125C633.315 397.52 639.244 392.895 644.535 388.408C654.257 380.161 664.26 372.35 674.203 364.383C696.47 346.539 718.373 328.194 740.823 310.578C750.589 302.914 760.928 295.956 770.651 288.283L246.905 287.575Z"/>
	<path fill="#06D6A0" transform="scale(0.5 0.5)" d="M396.285 401.491C405.924 391.742 416.745 382.336 428.381 375.042C451.913 360.29 481.219 352.108 508.936 351.974C527.073 351.887 545.712 354.1 562.983 359.859C581.236 365.946 598.154 375.971 613.005 388.083C618.739 392.759 623.773 398.098 629.18 403.125C636.044 410.657 642.419 418.143 647.922 426.771C665.149 453.78 672.995 486.769 671.465 518.66C670.329 542.319 665.196 565.666 654.942 587.072L654.569 587.79L640.741 612.56C638.426 618.479 633.66 624.227 629.807 629.223C627.438 632.294 624.926 635.973 622.166 638.686L621.319 638.346C620.46 638.643 620.75 638.428 620.19 638.995L617.163 641.828C584.959 669.977 543.577 685.4 500.683 682.563C473.802 680.785 446.711 670.566 424.5 655.486C416.832 650.281 409.17 644.503 403.049 637.497L402.042 637.334C394.928 630.445 388.587 621.365 383.943 612.683L382.681 610.459C380.067 607.559 377.881 603.425 375.799 600.081C361.986 577.891 355.392 552.854 353.385 526.934C352.811 519.51 353.798 512.006 353.139 504.677L353.098 504.272L353.293 503.29C353.635 487.99 357.147 473.699 362.155 459.269C363.917 454.194 365.617 448.816 368.239 444.109C374.751 428.886 385.03 413.535 396.285 401.491Z"/>
	<path fill="#90E4D3" transform="scale(0.5 0.5)" d="M631.418 584.034L632.089 584.433C632.762 584.827 633.181 584.962 633.953 585.211C635.349 585.663 636.303 586.79 636.905 588.099C637.601 589.612 637.534 590.655 637.25 592.255L636.75 592.765C635.783 593.83 635.462 595.5 635.062 596.849C632.399 593.271 630.699 589.58 629.055 585.477L631.418 584.034Z"/>
	<path fill="#118AB2" transform="scale(0.5 0.5)" d="M459.697 477.484C461.137 480.264 463.304 483.34 463.726 486.432C464.32 490.781 466.511 495.667 468.05 499.806C473.384 514.154 479.766 528.146 486.297 541.985C490.89 531.412 496.109 521.825 501.855 511.872C505.44 505.663 508.745 499.402 513.288 493.825L540.441 543.269C543.16 533.655 546.677 524.524 550.706 515.391C553.084 510 555.846 504.721 558.028 499.25C560.449 493.179 561.528 486.699 563.978 480.68C567.256 472.627 571.204 465.117 573.783 456.855C574.585 454.284 575.445 451.656 576.15 449.06C577.237 445.057 577.981 439.175 581.5 436.585L582.36 437C585.137 448.226 589.364 459.977 590.413 471.5C591.326 472.048 591.952 472.096 592.268 473.146C595.328 483.297 600.869 492.647 604.868 502.448C608.926 512.395 612.008 522.809 616.084 532.791C620.982 544.784 626.969 556.502 631.399 568.656C632.188 570.819 633.945 575.254 633.636 577.505C633.37 579.449 631.997 582.074 631.418 584.034L629.055 585.477C630.699 589.58 632.399 593.271 635.062 596.849C636.913 600.279 638.182 603.429 638.998 607.25C639.245 608.404 639.325 610.794 639.806 611.765C639.988 612.132 640.429 612.295 640.741 612.56C638.426 618.479 633.66 624.227 629.807 629.223C627.438 632.294 624.926 635.973 622.166 638.686L621.319 638.346C620.46 638.643 620.75 638.428 620.19 638.995L617.163 641.828C584.959 669.977 543.577 685.4 500.683 682.563C473.802 680.785 446.711 670.566 424.5 655.486C416.832 650.281 409.17 644.503 403.049 637.497L402.042 637.334C394.928 630.445 388.587 621.365 383.943 612.683L382.681 610.459C381.905 606.15 378.492 603.495 376.866 599.523C377.46 598.092 379.039 596.787 380.125 595.655L380.541 596.22L381.305 595.893L381.125 594.753L382.011 593.643C385.585 589.532 387.372 585.676 389.725 580.823L390 581.25L389.109 584.641L389 585.25L388.663 587.337L389.439 587.7C390.096 586.109 390.612 584.739 390.705 583.009C390.909 579.186 390.799 575.235 391.619 571.498C393.387 563.437 397.364 555.819 400.705 548.317C404.853 539.004 408.964 529.676 412.629 520.158C416.206 510.871 419.788 501.408 422.724 491.898C423.934 487.975 424.467 483.91 425.705 480.002L425.998 480.002L426.176 481L426.75 481.392L429.484 476.587C430.472 474.554 430.654 473.094 429.928 470.971L443.66 436.067C445.546 438.183 446.811 441.474 448.056 444.034C453.072 454.352 457.698 466.152 459.697 477.484Z"/>
	<path fill="#073B4C" transform="scale(0.5 0.5)" d="M383.943 612.683C386.132 608.737 388.256 604.705 389.993 600.538C393.906 591.148 397.931 578.554 407.345 573.399C415.245 579.104 417.192 588.811 422.398 596.615C427.256 587.555 431.833 578.337 436.473 569.163C439.367 563.442 441.863 557.585 445.614 552.357C448.01 555.266 449.406 559.58 450.96 563.002C454.888 571.65 458.543 580.403 462.334 589.109C464.629 594.38 466.889 600.22 470.089 604.993L469.544 605.174C464.52 606.914 459.974 609.832 455.105 611.95C444.968 616.359 434.685 620.508 424.795 625.46C417.349 629.189 410.331 633.493 403.049 637.497L402.042 637.334C394.928 630.445 388.587 621.365 383.943 612.683Z"/>
	<path fill="#073B4C" transform="scale(0.5 0.5)" d="M621.319 638.346C617.669 635.596 613.503 633.374 609.56 631.06C597.912 624.225 585.851 618.631 573.507 613.206C567.711 610.658 562.071 607.774 556.134 605.562C560.992 593.177 565.293 580.649 570.56 568.408C572.975 562.795 575.501 555.916 579.748 551.418L601.868 595.021C605.14 588.489 608.685 582.599 614.17 577.637C616.385 575.633 618.992 574.108 621.396 572.343L629.055 585.477C630.699 589.58 632.399 593.271 635.062 596.849C636.913 600.279 638.182 603.429 638.998 607.25C639.245 608.404 639.325 610.794 639.806 611.765C639.988 612.132 640.429 612.295 640.741 612.56C638.426 618.479 633.66 624.227 629.807 629.223C627.438 632.294 624.926 635.973 622.166 638.686L621.319 638.346Z"/>
</svg>
